<svg width="14" height="14" viewBox="0 0 14 14" fill="none" xmlns="http://www.w3.org/2000/svg">
<path d="M6.99972 0.0917969L6.64816 0.373047L2.00753 3.97642L1.86691 4.09961L1.81403 4.27511L0.267156 9.95298L0.144531 10.3923L6.99972 13.8202L13.8555 10.3923L13.7317 9.95298L12.1848 4.27511L12.1325 4.09961L11.9919 3.97642L7.35128 0.373047L6.99972 0.0917969ZM6.43722 1.9728V3.62486H4.31041L6.43722 1.9728ZM7.56222 1.9728L9.68903 3.62486H7.56222V1.9728ZM3.09709 4.74986H5.87472L3.85309 7.43917L3.09709 4.74986ZM8.12472 4.74986H10.9023L10.1463 7.43917L8.12472 4.74986ZM6.99972 5.13686L9.24972 8.12486H4.74972L6.99972 5.13686ZM2.39397 6.43736L2.95647 8.40611L1.69084 9.03892L2.39397 6.43736ZM11.6049 6.43736L12.308 9.03892L11.0424 8.40611L11.6049 6.43736ZM4.74972 9.24986H9.24972L6.99972 12.2384L4.74972 9.24986ZM3.44866 9.40792L5.10128 11.6056L2.07784 10.0936L3.44866 9.40792ZM10.5508 9.40792L11.9216 10.0936L8.89816 11.6056L10.5508 9.40792Z" fill="#012E3A"/>
</svg>
