<svg width="8" height="8" viewBox="0 0 8 8" fill="none" xmlns="http://www.w3.org/2000/svg">
<path d="M0.484375 7.23438C0.484375 7.38994 0.610059 7.51562 0.765625 7.51562H7.23438C7.38994 7.51562 7.51562 7.38994 7.51562 7.23438V3.54297H0.484375V7.23438ZM7.23438 1.11719H5.75781V0.554688C5.75781 0.516016 5.72617 0.484375 5.6875 0.484375H5.19531C5.15664 0.484375 5.125 0.516016 5.125 0.554688V1.11719H2.875V0.554688C2.875 0.516016 2.84336 0.484375 2.80469 0.484375H2.3125C2.27383 0.484375 2.24219 0.516016 2.24219 0.554688V1.11719H0.765625C0.610059 1.11719 0.484375 1.24287 0.484375 1.39844V2.94531H7.51562V1.39844C7.51562 1.24287 7.38994 1.11719 7.23438 1.11719Z" fill="white"/>
</svg>
