<svg width="14" height="15" viewBox="0 0 14 15" fill="none" xmlns="http://www.w3.org/2000/svg">
<path d="M9.8125 0.75C8.80394 0.75 7.88987 0.939 7.1755 1.29506C6.46169 1.65112 5.875 2.23106 5.875 3V5.25C5.875 5.32256 5.89919 5.39288 5.91044 5.46094C5.34739 5.31786 4.76843 5.24698 4.1875 5.25C3.17894 5.25 2.26487 5.439 1.5505 5.79506C0.836687 6.15112 0.25 6.73106 0.25 7.5V12C0.25 12.7689 0.836688 13.3489 1.55106 13.7049C2.26488 14.061 3.17894 14.25 4.1875 14.25C5.19606 14.25 6.11013 14.061 6.8245 13.7049C7.53775 13.3489 8.125 12.7689 8.125 12V11.7716C8.67526 11.9204 9.24249 11.9971 9.8125 12C10.8211 12 11.7351 11.811 12.4495 11.4549C13.1628 11.0989 13.75 10.5189 13.75 9.75V3C13.75 2.23106 13.1633 1.65112 12.4489 1.29506C11.7357 0.939 10.8216 0.75 9.8125 0.75ZM9.8125 1.875C10.6692 1.875 11.4319 2.0595 11.9393 2.31431C12.4473 2.56913 12.625 2.83744 12.625 3C12.625 3.16313 12.4473 3.43087 11.9393 3.68569C11.4325 3.9405 10.6692 4.125 9.8125 4.125C8.95581 4.125 8.19306 3.9405 7.68569 3.68569C7.17775 3.43087 7 3.16256 7 3C7 2.83687 7.17775 2.56913 7.68569 2.31431C8.1925 2.0595 8.95581 1.875 9.8125 1.875ZM7 4.59975C7.05906 4.63238 7.11419 4.67456 7.17606 4.70494C7.88987 5.061 8.80394 5.25 9.8125 5.25C10.8211 5.25 11.7351 5.061 12.4495 4.70494C12.5108 4.67456 12.5659 4.63238 12.625 4.59975V5.25C12.625 5.41313 12.4473 5.68087 11.9393 5.93569C11.4319 6.1905 10.6692 6.375 9.8125 6.375C8.95581 6.375 8.19306 6.1905 7.68569 5.93569C7.17775 5.68087 7 5.41256 7 5.25V4.59975ZM4.1875 6.375C5.04419 6.375 5.80694 6.5595 6.31431 6.81431C6.82225 7.06913 7 7.33744 7 7.5C7 7.66313 6.82225 7.93087 6.31431 8.18569C5.80694 8.4405 5.04419 8.625 4.1875 8.625C3.33081 8.625 2.56806 8.4405 2.06069 8.18569C1.55275 7.93087 1.375 7.66256 1.375 7.5C1.375 7.33687 1.55275 7.06913 2.06069 6.81431C2.5675 6.5595 3.33081 6.375 4.1875 6.375ZM12.625 6.84975V7.5C12.625 7.66313 12.4473 7.93087 11.9393 8.18569C11.4319 8.4405 10.6692 8.625 9.8125 8.625C9.23949 8.62811 8.66972 8.53903 8.125 8.36119V7.5C8.125 7.42744 8.10081 7.35712 8.08956 7.28906C8.61269 7.42519 9.19263 7.5 9.8125 7.5C10.8211 7.5 11.7351 7.311 12.4495 6.95494C12.5108 6.92456 12.5659 6.88237 12.625 6.84975ZM1.375 9.09975C1.43406 9.13237 1.48919 9.17456 1.55106 9.20494C2.26488 9.561 3.17894 9.75 4.1875 9.75C5.19606 9.75 6.11013 9.561 6.8245 9.20494C6.88581 9.17456 6.94094 9.13237 7 9.09975V9.75C7 9.91313 6.82225 10.1809 6.31431 10.4357C5.80694 10.6905 5.04419 10.875 4.1875 10.875C3.33081 10.875 2.56806 10.6905 2.06069 10.4357C1.55275 10.1809 1.375 9.91256 1.375 9.75V9.09975ZM12.625 9.09975V9.75C12.625 9.91313 12.4473 10.1809 11.9393 10.4357C11.4319 10.6905 10.6692 10.875 9.8125 10.875C9.17294 10.875 8.59525 10.785 8.125 10.6286V9.53906C8.64137 9.67519 9.20387 9.75 9.8125 9.75C10.8211 9.75 11.7351 9.561 12.4495 9.20494C12.5108 9.17456 12.5659 9.13237 12.625 9.09975ZM1.375 11.3497C1.43406 11.3824 1.48919 11.4246 1.55106 11.4549C2.26488 11.811 3.17894 12 4.1875 12C5.19606 12 6.11013 11.811 6.8245 11.4549C6.88581 11.4246 6.94094 11.3824 7 11.3497V12C7 12.1631 6.82225 12.4309 6.31431 12.6857C5.80694 12.9405 5.04419 13.125 4.1875 13.125C3.33081 13.125 2.56806 12.9405 2.06069 12.6857C1.55275 12.4309 1.375 12.1626 1.375 12V11.3497Z" fill="#E6EAEB"/>
</svg>
