<svg width="32" height="20" viewBox="0 0 32 20" fill="none" xmlns="http://www.w3.org/2000/svg">
<mask id="mask0" mask-type="alpha" maskUnits="userSpaceOnUse" x="0" y="0" width="32" height="20">
<path d="M9.84615 0.5H22.1538C27.3156 0.5 31.5 4.68442 31.5 9.84615C31.5 15.0079 27.3156 19.1923 22.1538 19.1923H9.84615C4.68442 19.1923 0.5 15.0079 0.5 9.84615C0.5 4.68442 4.68442 0.5 9.84615 0.5Z" fill="white" stroke="#E6EAEB"/>
</mask>
<g mask="url(#mask0)">
<path d="M22.1538 0H9.84615C4.40827 0 0 4.40827 0 9.84615C0 15.284 4.40827 19.6923 9.84615 19.6923H22.1538C27.5917 19.6923 32 15.284 32 9.84615C32 4.40827 27.5917 0 22.1538 0Z" fill="#1F9B99"/>
<path d="M22.1535 18.4612C26.9116 18.4612 30.7689 14.604 30.7689 9.84585C30.7689 5.08771 26.9116 1.23047 22.1535 1.23047C17.3953 1.23047 13.5381 5.08771 13.5381 9.84585C13.5381 14.604 17.3953 18.4612 22.1535 18.4612Z" fill="white"/>
</g>
</svg>
