<svg width="14" height="12" viewBox="0 0 14 12" fill="none" xmlns="http://www.w3.org/2000/svg">
<path fill-rule="evenodd" clip-rule="evenodd" d="M13.0326 0H7.77394L7.4393 0.143418L6.81783 0.755333L6.19635 0.143418L5.86171 0H0.603059L0.125 0.478059V10.0392L0.603059 10.5173H5.66092L6.48319 11.33H7.15247L7.97473 10.5173H13.0326L13.5107 10.0392V0.478059L13.0326 0ZM6.33977 9.86714L6.16767 9.7046L5.86171 9.56118H1.08112V0.956118H5.66092L6.36845 1.66365L6.33977 9.86714ZM12.5545 9.56118H7.77394L7.4393 9.7046L7.30545 9.82889V1.6254L7.97473 0.956118H12.5545V9.56118ZM4.90559 2.86835H2.03724V3.82447H4.90559V2.86835ZM4.90559 6.69283H2.03724V7.64894H4.90559V6.69283ZM2.03724 4.78059H4.90559V5.73671H2.03724V4.78059ZM11.5984 2.86835H8.73006V3.82447H11.5984V2.86835ZM8.73006 4.78059H11.5984V5.73671H8.73006V4.78059ZM8.73006 6.69283H11.5984V7.64894H8.73006V6.69283Z" fill="#E6EAEB"/>
</svg>
