<svg width="13" height="13" viewBox="0 0 13 13" fill="none" xmlns="http://www.w3.org/2000/svg">
<path d="M6.49973 0L6.1664 0.266328L1.7664 3.67852L1.63307 3.79517L1.58293 3.96136L0.116267 9.33799L0 9.75399L6.49973 13L13 9.75399L12.8827 9.33799L11.416 3.96136L11.3664 3.79517L11.2331 3.67852L6.83307 0.266328L6.49973 0ZM5.9664 1.7812V3.34561H3.94987L5.9664 1.7812ZM7.03307 1.7812L9.0496 3.34561H7.03307V1.7812ZM2.79947 4.41092H5.43307L3.51627 6.95755L2.79947 4.41092ZM7.5664 4.41092H10.2L9.4832 6.95755L7.5664 4.41092ZM6.49973 4.77739L8.63307 7.60686H4.3664L6.49973 4.77739ZM2.1328 6.00889L2.66613 7.87319L1.46613 8.47242L2.1328 6.00889ZM10.8661 6.00889L11.5328 8.47242L10.3328 7.87319L10.8661 6.00889ZM4.3664 8.67217H8.63307L6.49973 11.5022L4.3664 8.67217ZM3.1328 8.82185L4.69973 10.9029L1.83307 9.47115L3.1328 8.82185ZM9.86667 8.82185L11.1664 9.47115L8.29973 10.9029L9.86667 8.82185Z" fill="#E6EAEB"/>
</svg>
