<svg width="14" height="15" viewBox="0 0 14 15" fill="none" xmlns="http://www.w3.org/2000/svg">
<path d="M7 0.75C3.27815 0.75 0.25 3.77815 0.25 7.5C0.25 11.2218 3.27815 14.25 7 14.25C10.7218 14.25 13.75 11.2218 13.75 7.5C13.75 3.77815 10.7218 0.75 7 0.75ZM6.41587 1.82117C6.43819 1.8191 6.45844 1.82273 6.48077 1.82117V7.71081L6.62667 7.87333L10.6668 11.8974C9.67767 12.7245 8.39569 13.2115 7 13.2115C3.83996 13.2115 1.28846 10.66 1.28846 7.5C1.28669 6.08606 1.8104 4.72192 2.75791 3.67241C3.70541 2.62291 5.00911 1.96295 6.41587 1.82065V1.82117ZM7.51923 1.82117C8.84776 1.93981 10.0924 2.5215 11.0356 3.4646C11.9788 4.40771 12.5606 5.65225 12.6793 6.98077H7.51923V1.82117ZM8.26588 8.01923H12.6793C12.5713 9.20983 12.1212 10.3013 11.3968 11.1673L8.26588 8.01923Z" fill="#E6EAEB"/>
</svg>
