<svg width="32" height="20" viewBox="0 0 32 20" fill="none" xmlns="http://www.w3.org/2000/svg">
<mask id="mask0" mask-type="alpha" maskUnits="userSpaceOnUse" x="0" y="0" width="32" height="20">
<path d="M9.84615 0.5H22.1538C27.3083 0.5 31.5 4.74596 31.5 10C31.5 15.254 27.3083 19.5 22.1538 19.5H9.84615C4.6917 19.5 0.5 15.254 0.5 10C0.5 4.74596 4.6917 0.5 9.84615 0.5Z" fill="white" stroke="#E6EAEB"/>
</mask>
<g mask="url(#mask0)">
<path opacity="0.16" d="M9.84615 0.5H22.1538C27.3083 0.5 31.5 4.74596 31.5 10C31.5 15.254 27.3083 19.5 22.1538 19.5H9.84615C4.6917 19.5 0.5 15.254 0.5 10C0.5 4.74596 4.6917 0.5 9.84615 0.5Z" stroke="#E6EAEB"/>
</g>
<mask id="mask1" mask-type="alpha" maskUnits="userSpaceOnUse" x="0" y="0" width="32" height="20">
<path d="M9.84615 0.5H22.1538C27.3083 0.5 31.5 4.74596 31.5 10C31.5 15.254 27.3083 19.5 22.1538 19.5H9.84615C4.6917 19.5 0.5 15.254 0.5 10C0.5 4.74596 4.6917 0.5 9.84615 0.5Z" fill="white" stroke="#E6EAEB"/>
</mask>
<g mask="url(#mask1)">
<path d="M22.1538 0.3125H9.84608C4.57813 0.3125 0.307617 4.64974 0.307617 10C0.307617 15.3503 4.57813 19.6875 9.84608 19.6875H22.1538C27.4217 19.6875 31.6922 15.3503 31.6922 10C31.6922 4.64974 27.4217 0.3125 22.1538 0.3125Z" stroke="#E6EAEB"/>
<path d="M17.9612 10C17.9612 14.5637 14.3206 18.25 9.84585 18.25C5.37113 18.25 1.73047 14.5637 1.73047 10C1.73047 5.43631 5.37113 1.75 9.84585 1.75C14.3206 1.75 17.9612 5.43631 17.9612 10Z" fill="#E6EAEB" stroke="#E6EAEB"/>
</g>
</svg>
