<svg width="9" height="8" viewBox="0 0 9 8" fill="none" xmlns="http://www.w3.org/2000/svg">
<path d="M0.984375 7.23438C0.984375 7.38994 1.11006 7.51562 1.26562 7.51562H7.73438C7.88994 7.51562 8.01562 7.38994 8.01562 7.23438V3.54297H0.984375V7.23438ZM7.73438 1.11719H6.25781V0.554688C6.25781 0.516016 6.22617 0.484375 6.1875 0.484375H5.69531C5.65664 0.484375 5.625 0.516016 5.625 0.554688V1.11719H3.375V0.554688C3.375 0.516016 3.34336 0.484375 3.30469 0.484375H2.8125C2.77383 0.484375 2.74219 0.516016 2.74219 0.554688V1.11719H1.26562C1.11006 1.11719 0.984375 1.24287 0.984375 1.39844V2.94531H8.01562V1.39844C8.01562 1.24287 7.88994 1.11719 7.73438 1.11719Z" fill="#8F9BB3"/>
</svg>
